vision_curl_from_video
version=1
nRows=439
nColumns=3
inDegrees=yes
endheader
time	r_shoulder_elev	r_elbow_flex
0.0000	20.000000	12.890064
0.0100	20.000000	12.826758
0.0200	20.000000	12.763452
0.0300	20.000000	12.700146
0.0400	20.000000	12.636840
0.0500	20.000000	12.578272
0.0600	20.000000	12.520652
0.0700	20.000000	12.463031
0.0800	20.000000	12.405411
0.0900	20.000000	12.370012
0.1000	20.000000	12.345725
0.1100	20.000000	12.321438
0.1200	20.000000	12.297150
0.1300	20.000000	12.257088
0.1400	20.000000	12.201250
0.1500	20.000000	12.145412
0.1600	20.000000	12.089574
0.1700	20.000000	12.043169
0.1800	20.000000	12.015627
0.1900	20.000000	11.988085
0.2000	20.000000	11.960543
0.2100	20.000000	11.983029
0.2200	20.000000	12.255656
0.2300	20.000000	12.528284
0.2400	20.000000	12.800911
0.2500	20.000000	13.073538
0.2600	20.000000	13.509821
0.2700	20.000000	13.946104
0.2800	20.000000	14.382387
0.2900	20.000000	14.818670
0.3000	20.000000	14.964211
0.3100	20.000000	15.051603
0.3200	20.000000	15.138994
0.3300	20.000000	15.226386
0.3400	20.000000	15.155687
0.3500	20.000000	15.005941
0.3600	20.000000	14.856196
0.3700	20.000000	14.706451
0.3800	20.000000	14.703138
0.3900	20.000000	14.846258
0.4000	20.000000	14.989379
0.4100	20.000000	15.132499
0.4200	20.000000	15.325042
0.4300	20.000000	15.616432
0.4400	20.000000	15.907822
0.4500	20.000000	16.199212
0.4600	20.000000	16.438336
0.4700	20.000000	16.416137
0.4800	20.000000	16.393937
0.4900	20.000000	16.371737
0.5000	20.000000	16.349538
0.5100	20.000000	16.217274
0.5200	20.000000	16.085010
0.5300	20.000000	15.952746
0.5400	20.000000	15.820482
0.5500	20.000000	15.999183
0.5600	20.000000	16.240077
0.5700	20.000000	16.480972
0.5800	20.000000	16.721866
0.5900	20.000000	17.128437
0.6000	20.000000	17.617845
0.6100	20.000000	18.107254
0.6200	20.000000	18.596663
0.6300	20.000000	19.011868
0.6400	20.000000	19.352871
0.6500	20.000000	19.693873
0.6600	20.000000	20.034875
0.6700	20.000000	20.396271
0.6800	20.000000	20.798454
0.6900	20.000000	21.200636
0.7000	20.000000	21.602819
0.7100	20.000000	22.086519
0.7200	20.000000	22.977808
0.7300	20.000000	23.869098
0.7400	20.000000	24.760388
0.7500	20.000000	25.651677
0.7600	20.000000	26.762169
0.7700	20.000000	27.872661
0.7800	20.000000	28.983152
0.7900	20.000000	30.093644
0.8000	20.000000	30.960307
0.8100	20.000000	31.778205
0.8200	20.000000	32.596103
0.8300	20.000000	33.414001
0.8400	20.000000	34.069209
0.8500	20.000000	34.643073
0.8600	20.000000	35.216937
0.8700	20.000000	35.790801
0.8800	20.000000	36.465232
0.8900	20.000000	37.240231
0.9000	20.000000	38.015230
0.9100	20.000000	38.790229
0.9200	20.000000	39.730611
0.9300	20.000000	41.001762
0.9400	20.000000	42.272913
0.9500	20.000000	43.544064
0.9600	20.000000	44.845807
0.9700	20.000000	46.300508
0.9800	20.000000	47.755209
0.9900	20.000000	49.209911
1.0000	20.000000	50.664612
1.0100	20.000000	51.879998
1.0200	20.000000	53.095384
1.0300	20.000000	54.310770
1.0400	20.000000	55.526156
1.0500	20.000000	56.786936
1.0600	20.000000	58.056795
1.0700	20.000000	59.326653
1.0800	20.000000	60.596512
1.0900	20.000000	62.077610
1.1000	20.000000	63.664326
1.1100	20.000000	65.251042
1.1200	20.000000	66.837759
1.1300	20.000000	68.344101
1.1400	20.000000	69.770070
1.1500	20.000000	71.196038
1.1600	20.000000	72.622007
1.1700	20.000000	73.936288
1.1800	20.000000	75.027194
1.1900	20.000000	76.118099
1.2000	20.000000	77.209005
1.2100	20.000000	78.347357
1.2200	20.000000	79.722944
1.2300	20.000000	81.098531
1.2400	20.000000	82.474118
1.2500	20.000000	83.849705
1.2600	20.000000	85.639474
1.2700	20.000000	87.429243
1.2800	20.000000	89.219013
1.2900	20.000000	91.008782
1.3000	20.000000	92.459373
1.3100	20.000000	93.842127
1.3200	20.000000	95.224882
1.3300	20.000000	96.607636
1.3400	20.000000	97.546749
1.3500	20.000000	98.264040
1.3600	20.000000	98.981331
1.3700	20.000000	99.698622
1.3800	20.000000	100.531233
1.3900	20.000000	101.479163
1.4000	20.000000	102.427093
1.4100	20.000000	103.375023
1.4200	20.000000	104.533175
1.4300	20.000000	106.111771
1.4400	20.000000	107.690366
1.4500	20.000000	109.268962
1.4600	20.000000	110.822225
1.4700	20.000000	112.248827
1.4800	20.000000	113.675429
1.4900	20.000000	115.102030
1.5000	20.000000	116.528632
1.5100	20.000000	117.422297
1.5200	20.000000	118.315962
1.5300	20.000000	119.209626
1.5400	20.000000	120.103291
1.5500	20.000000	120.983682
1.5600	20.000000	121.861417
1.5700	20.000000	122.739152
1.5800	20.000000	123.616888
1.5900	20.000000	124.497849
1.6000	20.000000	125.380425
1.6100	20.000000	126.263000
1.6200	20.000000	127.145575
1.6300	20.000000	127.723724
1.6400	20.000000	127.997448
1.6500	20.000000	128.271171
1.6600	20.000000	128.544895
1.6700	20.000000	128.621034
1.6800	20.000000	128.302006
1.6900	20.000000	127.982977
1.7000	20.000000	127.663948
1.7100	20.000000	127.336027
1.7200	20.000000	126.963644
1.7300	20.000000	126.591260
1.7400	20.000000	126.218877
1.7500	20.000000	125.846494
1.7600	20.000000	125.471878
1.7700	20.000000	125.097263
1.7800	20.000000	124.722647
1.7900	20.000000	124.348032
1.8000	20.000000	123.755159
1.8100	20.000000	123.118634
1.8200	20.000000	122.482110
1.8300	20.000000	121.845585
1.8400	20.000000	121.007240
1.8500	20.000000	120.067984
1.8600	20.000000	119.128728
1.8700	20.000000	118.189472
1.8800	20.000000	117.172957
1.8900	20.000000	116.079185
1.9000	20.000000	114.985412
1.9100	20.000000	113.891639
1.9200	20.000000	112.760539
1.9300	20.000000	111.554786
1.9400	20.000000	110.349032
1.9500	20.000000	109.143279
1.9600	20.000000	107.887959
1.9700	20.000000	106.384807
1.9800	20.000000	104.881655
1.9900	20.000000	103.378504
2.0000	20.000000	101.875352
2.0100	20.000000	100.311481
2.0200	20.000000	98.747610
2.0300	20.000000	97.183739
2.0400	20.000000	95.619868
2.0500	20.000000	94.558465
2.0600	20.000000	93.597555
2.0700	20.000000	92.636645
2.0800	20.000000	91.675735
2.0900	20.000000	90.937412
2.1000	20.000000	90.310384
2.1100	20.000000	89.683356
2.1200	20.000000	89.056327
2.1300	20.000000	88.037342
2.1400	20.000000	86.626400
2.1500	20.000000	85.215458
2.1600	20.000000	83.804516
2.1700	20.000000	82.114846
2.1800	20.000000	79.867721
2.1900	20.000000	77.620596
2.2000	20.000000	75.373471
2.2100	20.000000	73.196110
2.2200	20.000000	71.367573
2.2300	20.000000	69.539035
2.2400	20.000000	67.710497
2.2500	20.000000	65.881959
2.2600	20.000000	65.083396
2.2700	20.000000	64.284832
2.2800	20.000000	63.486268
2.2900	20.000000	62.687705
2.3000	20.000000	62.048191
2.3100	20.000000	61.440486
2.3200	20.000000	60.832782
2.3300	20.000000	60.225078
2.3400	20.000000	59.189863
2.3500	20.000000	57.940893
2.3600	20.000000	56.691922
2.3700	20.000000	55.442952
2.3800	20.000000	54.015214
2.3900	20.000000	52.408707
2.4000	20.000000	50.802201
2.4100	20.000000	49.195695
2.4200	20.000000	47.702154
2.4300	20.000000	46.434543
2.4400	20.000000	45.166933
2.4500	20.000000	43.899322
2.4600	20.000000	42.694963
2.4700	20.000000	41.806856
2.4800	20.000000	40.918749
2.4900	20.000000	40.030642
2.5000	20.000000	39.142535
2.5100	20.000000	38.176738
2.5200	20.000000	37.210942
2.5300	20.000000	36.245146
2.5400	20.000000	35.279349
2.5500	20.000000	34.237483
2.5600	20.000000	33.180402
2.5700	20.000000	32.123322
2.5800	20.000000	31.066241
2.5900	20.000000	30.136933
2.6000	20.000000	29.271512
2.6100	20.000000	28.406090
2.6200	20.000000	27.540669
2.6300	20.000000	26.710817
2.6400	20.000000	25.916536
2.6500	20.000000	25.122255
2.6600	20.000000	24.327973
2.6700	20.000000	23.508536
2.6800	20.000000	22.638786
2.6900	20.000000	21.769035
2.7000	20.000000	20.899285
2.7100	20.000000	20.052541
2.7200	20.000000	19.320827
2.7300	20.000000	18.589114
2.7400	20.000000	17.857400
2.7500	20.000000	17.125686
2.7600	20.000000	16.689639
2.7700	20.000000	16.253591
2.7800	20.000000	15.817544
2.7900	20.000000	15.381496
2.8000	20.000000	15.081839
2.8100	20.000000	14.809461
2.8200	20.000000	14.537082
2.8300	20.000000	14.264703
2.8400	20.000000	14.088659
2.8500	20.000000	13.960783
2.8600	20.000000	13.832906
2.8700	20.000000	13.705029
2.8800	20.000000	13.805962
2.8900	20.000000	14.135703
2.9000	20.000000	14.465445
2.9100	20.000000	14.795187
2.9200	20.000000	15.279044
2.9300	20.000000	16.071130
2.9400	20.000000	16.863216
2.9500	20.000000	17.655302
2.9600	20.000000	18.439384
2.9700	20.000000	19.183442
2.9800	20.000000	19.927500
2.9900	20.000000	20.671558
3.0000	20.000000	21.415616
3.0100	20.000000	22.053641
3.0200	20.000000	22.691666
3.0300	20.000000	23.329690
3.0400	20.000000	23.967715
3.0500	20.000000	24.896614
3.0600	20.000000	25.883688
3.0700	20.000000	26.870762
3.0800	20.000000	27.857835
3.0900	20.000000	29.016352
3.1000	20.000000	30.260591
3.1100	20.000000	31.504829
3.1200	20.000000	32.749067
3.1300	20.000000	33.955289
3.1400	20.000000	35.123496
3.1500	20.000000	36.291702
3.1600	20.000000	37.459908
3.1700	20.000000	38.658955
3.1800	20.000000	39.919681
3.1900	20.000000	41.180407
3.2000	20.000000	42.441133
3.2100	20.000000	43.729601
3.2200	20.000000	45.156781
3.2300	20.000000	46.583961
3.2400	20.000000	48.011141
3.2500	20.000000	49.438321
3.2600	20.000000	50.929874
3.2700	20.000000	52.421426
3.2800	20.000000	53.912979
3.2900	20.000000	55.404532
3.3000	20.000000	57.008975
3.3100	20.000000	58.635995
3.3200	20.000000	60.263016
3.3300	20.000000	61.890036
3.3400	20.000000	63.534572
3.3500	20.000000	65.187865
3.3600	20.000000	66.841158
3.3700	20.000000	68.494451
3.3800	20.000000	70.123823
3.3900	20.000000	71.729275
3.4000	20.000000	73.334727
3.4100	20.000000	74.940178
3.4200	20.000000	76.548115
3.4300	20.000000	78.161019
3.4400	20.000000	79.773924
3.4500	20.000000	81.386829
3.4600	20.000000	82.948335
3.4700	20.000000	84.252849
3.4800	20.000000	85.557363
3.4900	20.000000	86.861877
3.5000	20.000000	88.166391
3.5100	20.000000	89.090589
3.5200	20.000000	90.014788
3.5300	20.000000	90.938986
3.5400	20.000000	91.863184
3.5500	20.000000	93.009082
3.5600	20.000000	94.199319
3.5700	20.000000	95.389556
3.5800	20.000000	96.579794
3.5900	20.000000	98.045790
3.6000	20.000000	99.649666
3.6100	20.000000	101.253541
3.6200	20.000000	102.857417
3.6300	20.000000	104.346537
3.6400	20.000000	105.720901
3.6500	20.000000	107.095266
3.6600	20.000000	108.469630
3.6700	20.000000	109.709672
3.6800	20.000000	110.681067
3.6900	20.000000	111.652462
3.7000	20.000000	112.623857
3.7100	20.000000	113.583565
3.7200	20.000000	114.484838
3.7300	20.000000	115.386110
3.7400	20.000000	116.287382
3.7500	20.000000	117.188654
3.7600	20.000000	118.050221
3.7700	20.000000	118.911787
3.7800	20.000000	119.773353
3.7900	20.000000	120.634920
3.8000	20.000000	121.314269
3.8100	20.000000	121.957175
3.8200	20.000000	122.600080
3.8300	20.000000	123.242986
3.8400	20.000000	123.694933
3.8500	20.000000	124.051400
3.8600	20.000000	124.407866
3.8700	20.000000	124.764333
3.8800	20.000000	124.947410
3.8900	20.000000	124.957096
3.9000	20.000000	124.966783
3.9100	20.000000	124.976469
3.9200	20.000000	124.844088
3.9300	20.000000	124.427572
3.9400	20.000000	124.011055
3.9500	20.000000	123.594539
3.9600	20.000000	123.119451
3.9700	20.000000	122.351511
3.9800	20.000000	121.583571
3.9900	20.000000	120.815631
4.0000	20.000000	120.047690
4.0100	20.000000	119.054189
4.0200	20.000000	118.060687
4.0300	20.000000	117.067185
4.0400	20.000000	116.073683
4.0500	20.000000	114.907085
4.0600	20.000000	113.705867
4.0700	20.000000	112.504649
4.0800	20.000000	111.303432
4.0900	20.000000	110.057005
4.1000	20.000000	108.787973
4.1100	20.000000	107.518941
4.1200	20.000000	106.249910
4.1300	20.000000	105.015747
4.1400	20.000000	103.816455
4.1500	20.000000	102.617163
4.1600	20.000000	101.417870
4.1700	20.000000	100.209061
4.1800	20.000000	98.981220
4.1900	20.000000	97.753379
4.2000	20.000000	96.525538
4.2100	20.000000	95.311254
4.2200	20.000000	94.164754
4.2300	20.000000	93.018254
4.2400	20.000000	91.871755
4.2500	20.000000	90.725255
4.2600	20.000000	89.734352
4.2700	20.000000	88.743450
4.2800	20.000000	87.752547
4.2900	20.000000	86.761644
4.3000	20.000000	85.504067
4.3100	20.000000	84.193155
4.3200	20.000000	82.882243
4.3300	20.000000	81.571331
4.3400	20.000000	79.997053
4.3500	20.000000	78.291091
4.3600	20.000000	76.585130
4.3700	20.000000	74.879168
4.3800	20.000000	73.348876
